<?xml version="1.0" standalone="no"?>
<svg viewBox="0 0 200 200" xmlns="http://www.w3.org/2000/svg">
  <path fill-opacity="0.6" fill="#302D62" d="M42.6,-49.8C57.8,-38,74.5,-27.1,75.6,-14.3C76.7,-1.5,62.2,13,50.2,24.3C38.1,35.6,28.5,43.7,15.8,52C3.2,60.3,-12.4,68.7,-24.9,65.5C-37.4,62.3,-46.8,47.3,-53.8,32.4C-60.9,17.5,-65.7,2.5,-65.8,-14.2C-65.9,-30.9,-61.4,-49.3,-49.7,-61.7C-37.9,-74.1,-19,-80.4,-2.6,-77.3C13.7,-74.1,27.4,-61.6,42.6,-49.8Z" transform="translate(100 100)" />
  <path fill-opacity="0.4" fill="#1A172C" d="M32.1,-24C42.5,-12.5,52.5,0.9,51.5,14.4C50.5,28,38.6,41.7,24.1,47.7C9.6,53.8,-7.4,52.3,-26.4,46.4C-45.4,40.5,-66.3,30.2,-72.1,13.9C-77.8,-2.4,-68.4,-24.7,-53.9,-37.2C-39.3,-49.6,-19.7,-52.2,-4.4,-48.7C10.8,-45.1,21.7,-35.5,32.1,-24Z" transform="translate(100 100)" />
</svg>
